<svg xmlns="http://www.w3.org/2000/svg" width="1600" height="1000" viewBox="0 0 1600 1000">
  <defs>
    <linearGradient id="g" x1="0" y1="0" x2="1" y2="1">
      <stop offset="0" stop-color="#0b0b0b"/>
      <stop offset="1" stop-color="#000000"/>
    </linearGradient>
    <filter id="grain">
      <feTurbulence type="fractalNoise" baseFrequency="0.75" numOctaves="3" stitchTiles="stitch" />
      <feColorMatrix type="matrix" values="
        1 0 0 0 0
        0 1 0 0 0
        0 0 1 0 0
        0 0 0 0.16 0" />
    </filter>
  </defs>
  <rect width="1600" height="1000" fill="url(#g)"/>
  <path
    d="M320 610c55-85 135-140 240-160 160-30 430-30 590 0 115 22 195 76 250 160l40 60H280l40-60Z"
    fill="#121212"
  />
  <path d="M520 520c120-70 420-70 560 0l60 50H460l60-50Z" fill="#1a1a1a"/>
  <g fill="#0a0a0a">
    <circle cx="520" cy="700" r="90"/>
    <circle cx="1080" cy="700" r="90"/>
  </g>
  <g fill="#1f1f1f">
    <circle cx="520" cy="700" r="45"/>
    <circle cx="1080" cy="700" r="45"/>
  </g>
  <g opacity="0.85">
    <rect x="0" y="0" width="1600" height="1000" filter="url(#grain)"/>
  </g>
</svg>

